# xmcd CD database file
#
# Track frame offsets:
#	183
#	70843
#	100260
#	128008
#	154220
#	184648
#	275833
#	297190
#
# Disc length: 4189 seconds
#
# Revision: 0
# Processed by: cddbd v1.5.2PL0 Copyright (c) Steve Scherf et al.
# Submitted via: CDex 1.51
#
DISCID=73105b08
DTITLE=Francois Jeanneau - Pandemonium
DYEAR=1988
DGENRE=Jazz
TTITLE0=Arfia
TTITLE1=Palabres
TTITLE2=Mini largo
TTITLE3=Pourpre
TTITLE4=Collages
TTITLE5=09-27
TTITLE6=Tango
TTITLE7=Travelling
EXTD=YEAR: 1988
EXTT0=
EXTT1=
EXTT2=
EXTT3=
EXTT4=
EXTT5=
EXTT6=
EXTT7=
PLAYORDER=
